<svg xmlns="http://www.w3.org/2000/svg" viewBox="0 0 30 30"><defs><style>.cls-1{fill:#193b6a;}</style></defs><title>arrow-text</title><g id="Слой_2" data-name="Слой 2"><g id="Слой_1-2" data-name="Слой 1"><path id="Фигура_5" data-name="Фигура 5" class="cls-1" d="M15,30A15,15,0,1,1,30,15,15,15,0,0,1,15,30ZM15,2.5A12.5,12.5,0,1,0,27.5,15h0A12.51,12.51,0,0,0,15,2.5ZM13.75,20a1.25,1.25,0,0,1-.88-2.13L15.73,15l-2.87-2.87a1.25,1.25,0,0,1,1.77-1.77l3.75,3.75a1.25,1.25,0,0,1,0,1.77l-3.75,3.75A1.25,1.25,0,0,1,13.75,20Z"/></g></g></svg>