<svg xmlns="http://www.w3.org/2000/svg" viewBox="0 0 12 12"><defs><style>.cls-1{fill:#fff;opacity:0.75;isolation:isolate;}</style></defs><title>download-arrow</title><g id="Слой_2" data-name="Слой 2"><g id="Слой_1-2" data-name="Слой 1"><path id="Фигура_2" data-name="Фигура 2" class="cls-1" d="M6,12a6,6,0,1,1,6-6A6,6,0,0,1,6,12ZM6,1a5,5,0,1,0,5,5A5,5,0,0,0,6,1ZM6,8.5a.5.5,0,0,1-.35-.85l1.5-1.5a.5.5,0,0,1,.72.69h0l-1.5,1.5A.5.5,0,0,1,6,8.5Zm0,0a.5.5,0,0,1-.35-.15l-1.5-1.5a.5.5,0,0,1,.71-.71l1.5,1.5A.5.5,0,0,1,6,8.5Zm0,0A.5.5,0,0,1,5.5,8V4a.5.5,0,0,1,1,0V8A.5.5,0,0,1,6,8.5Z"/></g></g></svg>