<svg xmlns="http://www.w3.org/2000/svg" xmlns:xlink="http://www.w3.org/1999/xlink" viewBox="0 0 386.59 70.05"><defs><style>.cls-1{fill:#fff;}.cls-2{fill:url(#Безымянный_градиент_149);}.cls-3{fill:url(#Безымянный_градиент_149-2);}.cls-4{fill:url(#Безымянный_градиент_149-3);}</style><radialGradient id="Безымянный_градиент_149" cx="13.78" cy="42.47" r="20.42" gradientUnits="userSpaceOnUse"><stop offset="0" stop-color="#fff"/><stop offset="0.01" stop-color="#fff"/><stop offset="0.07" stop-color="#fff"/><stop offset="0.33" stop-color="#b8b8d6"/><stop offset="0.42" stop-color="#9da5c6"/><stop offset="0.62" stop-color="#5e78a2"/><stop offset="0.79" stop-color="#315887"/><stop offset="0.92" stop-color="#144377"/><stop offset="1" stop-color="#0a3c71"/></radialGradient><radialGradient id="Безымянный_градиент_149-2" cx="50.76" cy="42.47" r="20.42" xlink:href="#Безымянный_градиент_149"/><radialGradient id="Безымянный_градиент_149-3" cx="32.59" cy="15.44" r="20.42" xlink:href="#Безымянный_градиент_149"/></defs><title>logo</title><g id="Слой_2" data-name="Слой 2"><g id="Слой_1-2" data-name="Слой 1"><g id="_Группа_" data-name="&lt;Группа&gt;"><path id="_Составной_контур_" data-name="&lt;Составной контур&gt;" class="cls-1" d="M114.18,58.94V51h3.48a2.49,2.49,0,1,1,0,5h-2.09v3Zm4.65-5.44a1.25,1.25,0,0,0-1.35-1.26h-1.9v2.52h1.9A1.25,1.25,0,0,0,118.83,53.5Z"/><path id="_Составной_контур_2" data-name="&lt;Составной контур&gt;" class="cls-1" d="M127.42,58.94V51h5.43v1.22h-4v2.06h4v1.22h-4v2.2h4v1.22Z"/><path id="_Составной_контур_3" data-name="&lt;Составной контур&gt;" class="cls-1" d="M140.28,58.94V51h3.48a2.49,2.49,0,1,1,0,5h-2.09v3Zm4.65-5.44a1.25,1.25,0,0,0-1.35-1.26h-1.9v2.52h1.9A1.25,1.25,0,0,0,144.93,53.5Z"/><path id="_Составной_контур_4" data-name="&lt;Составной контур&gt;" class="cls-1" d="M155.41,58.94v-6.7H153V51h6.19v1.22h-2.4v6.7Z"/><path id="_Составной_контур_5" data-name="&lt;Составной контур&gt;" class="cls-1" d="M166.38,58.94V51h1.39v7.93Z"/><path id="_Составной_контур_6" data-name="&lt;Составной контур&gt;" class="cls-1" d="M175.47,58.94V51h2.95a4,4,0,1,1,0,7.93Zm5.67-4a2.57,2.57,0,0,0-2.72-2.75h-1.56v5.48h1.56A2.6,2.6,0,0,0,181.14,55Z"/><path id="_Составной_контур_7" data-name="&lt;Составной контур&gt;" class="cls-1" d="M189.92,58.94V51h5.43v1.22h-4v2.06h4v1.22h-4v2.2h4v1.22Z"/><path id="_Составной_контур_8" data-name="&lt;Составной контур&gt;" class="cls-1" d="M217.91,58.94l-1.54-5.85-1.53,5.85h-1.49L211.08,51h1.56l1.54,6.11L215.82,51h1.11l1.64,6.11L220.1,51h1.56l-2.26,7.93Z"/><path id="_Составной_контур_9" data-name="&lt;Составной контур&gt;" class="cls-1" d="M228.23,55a4.05,4.05,0,1,1,4.05,4.1A3.93,3.93,0,0,1,228.23,55Zm6.68,0a2.64,2.64,0,1,0-2.63,2.86A2.63,2.63,0,0,0,234.91,55Z"/><path id="_Составной_контур_10" data-name="&lt;Составной контур&gt;" class="cls-1" d="M248.22,58.94l-1.76-3h-1.38v3h-1.39V51h3.48a2.41,2.41,0,0,1,2.59,2.48,2.22,2.22,0,0,1-1.88,2.33l1.94,3.11Zm.12-5.44A1.25,1.25,0,0,0,247,52.24h-1.9v2.52H247A1.25,1.25,0,0,0,248.34,53.5Z"/><path id="_Составной_контур_11" data-name="&lt;Составной контур&gt;" class="cls-1" d="M257.16,58.94V51h1.39v6.7H262v1.22Z"/><path id="_Составной_контур_12" data-name="&lt;Составной контур&gt;" class="cls-1" d="M269.32,58.94V51h2.95a4,4,0,1,1,0,7.93ZM275,55a2.57,2.57,0,0,0-2.72-2.75h-1.56v5.48h1.56A2.6,2.6,0,0,0,275,55Z"/><path id="_Составной_контур_13" data-name="&lt;Составной контур&gt;" class="cls-1" d="M292.47,55a4,4,0,0,1,4.16-4.1,3.58,3.58,0,0,1,3.19,1.78l-1.19.61a2.35,2.35,0,0,0-2-1.15,2.87,2.87,0,0,0,0,5.73,2.33,2.33,0,0,0,2-1.15l1.19.61a3.6,3.6,0,0,1-3.19,1.78A4,4,0,0,1,292.47,55Z"/><path id="_Составной_контур_14" data-name="&lt;Составной контур&gt;" class="cls-1" d="M306.59,55a4.05,4.05,0,1,1,4.05,4.1A3.93,3.93,0,0,1,306.59,55Zm6.68,0a2.64,2.64,0,1,0-2.63,2.86A2.63,2.63,0,0,0,313.27,55Z"/><path id="_Составной_контур_15" data-name="&lt;Составной контур&gt;" class="cls-1" d="M328.89,58.94V53.06l-2.44,5.88h-.59l-2.42-5.88v5.88H322V51h2l2.15,5.22L328.32,51h2v7.93Z"/><path id="_Составной_контур_16" data-name="&lt;Составной контур&gt;" class="cls-1" d="M338,58.94V51h3.48a2.49,2.49,0,1,1,0,5h-2.09v3Zm4.65-5.44a1.25,1.25,0,0,0-1.35-1.26h-1.9v2.52h1.9A1.25,1.25,0,0,0,342.62,53.5Z"/><path id="_Составной_контур_17" data-name="&lt;Составной контур&gt;" class="cls-1" d="M356.76,58.94l-.58-1.52h-3.64L352,58.94h-1.58L353.49,51h1.74l3.11,7.93Zm-2.4-6.53-1.43,3.78h2.85Z"/><path id="_Составной_контур_18" data-name="&lt;Составной контур&gt;" class="cls-1" d="M370.74,58.94l-4.14-5.66v5.66h-1.39V51h1.43l4.05,5.5V51h1.39v7.93Z"/><path id="_Составной_контур_19" data-name="&lt;Составной контур&gt;" class="cls-1" d="M382,58.94V55.65L378.95,51h1.59l2.19,3.4,2.16-3.4h1.59l-3.07,4.64v3.29Z"/></g><g id="_Группа_2" data-name="&lt;Группа&gt;"><path id="_Составной_контур_20" data-name="&lt;Составной контур&gt;" class="cls-1" d="M119.95,11V32.72h-5.72V11Z"/><path id="_Составной_контур_21" data-name="&lt;Составной контур&gt;" class="cls-1" d="M135.11,11c3.48,0,7.27.62,9.79,3a10.47,10.47,0,0,1,2.89,7.74c0,4.23-1.55,6.68-2.89,8-2.92,2.86-7.33,3-10.32,3H125V11Zm-4.38,17.41H134c1.49,0,4-.06,5.69-1.49a6.34,6.34,0,0,0,2.05-5.07,6.4,6.4,0,0,0-1.93-5c-1.65-1.43-3.88-1.49-5.47-1.49h-3.64Z"/><path id="_Составной_контур_22" data-name="&lt;Составной контур&gt;" class="cls-1" d="M169.46,19.61v4.1H157.53v4.66H172v4.35H151.81V11h19.83v4.35H157.53v4.29Z"/><path id="_Составной_контур_23" data-name="&lt;Составной контур&gt;" class="cls-1" d="M178.69,32.72h-6L182.49,11h5.63l9.76,21.76h-6L190,28.31h-9.42Zm9.95-8.14-3.36-8.14L182,24.58Z"/><path id="_Составной_контур_24" data-name="&lt;Составной контур&gt;" class="cls-1" d="M217.8,32.72H200.17V11h5.72V28.31H217.8Z"/><path id="_Составной_контур_25" data-name="&lt;Составной контур&gt;" class="cls-1" d="M240,11c3,0,5.41.19,7.3,2a6.7,6.7,0,0,1,2,5.19,7.18,7.18,0,0,1-1.77,5.16c-2,2.14-4.79,2.27-7.93,2.27h-5.56v7.18h-5.72V11Zm-5.94,10.35h5.16a5.26,5.26,0,0,0,3.39-.9,3.08,3.08,0,0,0,.81-2.24,2.56,2.56,0,0,0-1.06-2.24,4.79,4.79,0,0,0-2.8-.62h-5.5Z"/><path id="_Составной_контур_26" data-name="&lt;Составной контур&gt;" class="cls-1" d="M258.55,32.72h-5.72V11h5.72v8.14h10.32V11h5.72V32.72h-5.72V23.46H258.55Z"/><path id="_Составной_контур_27" data-name="&lt;Составной контур&gt;" class="cls-1" d="M283,32.72h-6L286.8,11h5.63l9.76,21.76h-6l-1.9-4.41H284.9ZM293,24.58l-3.36-8.14-3.29,8.14Z"/><path id="_Составной_контур_28" data-name="&lt;Составной контур&gt;" class="cls-1" d="M304.49,11h12.87c2.14,0,5.25.16,7.06,2a5.7,5.7,0,0,1,1.49,4.13,5.07,5.07,0,0,1-1.43,3.85,6.19,6.19,0,0,1-2.8,1.52v.12a4.58,4.58,0,0,1,2.55,1.31,4.46,4.46,0,0,1,1.09,3.29l.16,2.46a6.21,6.21,0,0,0,.9,3.11h-6.06a4.59,4.59,0,0,1-.84-2.77l-.09-1.8a3.56,3.56,0,0,0-1-2.64,4.71,4.71,0,0,0-2.8-.78h-5.35v8h-5.72Zm5.72,9.67h6.06a4.16,4.16,0,0,0,3-.87A2.6,2.6,0,0,0,320,17.9a2.41,2.41,0,0,0-1.06-2.11,6.2,6.2,0,0,0-2.74-.47h-6Z"/><path id="_Составной_контур_29" data-name="&lt;Составной контур&gt;" class="cls-1" d="M336,16.53h-.22l.22,1.83V32.72h-5.72V11h8.08l6.15,15.79h.16L350.83,11h8.08V32.72h-5.72V18.36l.22-1.83h-.22l-6.53,16.19h-4.13Z"/><path id="_Составной_контур_30" data-name="&lt;Составной контур&gt;" class="cls-1" d="M367.34,32.72h-6L371.13,11h5.63l9.76,21.76h-6l-1.9-4.41h-9.42Zm9.95-8.14-3.36-8.14-3.29,8.14Z"/></g><rect id="_Прямоугольник_" data-name="&lt;Прямоугольник&gt;" class="cls-1" x="114.21" y="40.32" width="272.39" height="3.22"/><g id="_Группа_3" data-name="&lt;Группа&gt;"><circle id="_Контур_" data-name="&lt;Контур&gt;" class="cls-2" cx="21" cy="48.05" r="21"/><circle id="_Контур_2" data-name="&lt;Контур&gt;" class="cls-3" cx="57.98" cy="48.05" r="21"/><circle id="_Контур_3" data-name="&lt;Контур&gt;" class="cls-4" cx="39.81" cy="21.01" r="21"/></g><path id="_Контур_4" data-name="&lt;Контур&gt;" class="cls-1" d="M61.17,26.28A22,22,0,0,0,61.81,21c0-12.13-9.7-21.33-22-21h0A21,21,0,0,1,59.89,27.14,21,21,0,1,1,39.49,58,21,21,0,0,1,1.39,55.5h0A20.29,20.29,0,0,0,21,70,22,22,0,0,0,39.49,60a22,22,0,1,0,21.68-33.7Z"/></g></g></svg>