<svg xmlns="http://www.w3.org/2000/svg" viewBox="0 0 11.94 11.94"><defs><style>.cls-1{fill:#fff;isolation:isolate;}</style></defs><title>instagram-social</title><g id="Слой_2" data-name="Слой 2"><g id="Социальные_сети" data-name="Социальные сети"><path id="icon" class="cls-1" d="M9.63,0H2.31A2.31,2.31,0,0,0,0,2.3H0V9.63a2.31,2.31,0,0,0,2.31,2.31H9.63a2.31,2.31,0,0,0,2.31-2.31V2.31A2.31,2.31,0,0,0,9.63,0Zm.51,1.58h.2V3.17H8.77V1.59ZM6,4A2,2,0,1,1,4,6,2,2,0,0,1,6,4H6Zm4.38,5.32a1.07,1.07,0,0,1-1.07,1.07H2.66A1.08,1.08,0,0,1,1.58,9.29V4.76H3.14A3.63,3.63,0,0,0,2.91,6,3.07,3.07,0,1,0,9,6a3.63,3.63,0,0,0-.22-1.24h1.53V9.28Z"/></g></g></svg>