<svg xmlns="http://www.w3.org/2000/svg" viewBox="0 0 12.73 10.35"><defs><style>.cls-1{fill:#fff;isolation:isolate;}</style></defs><title>twitter-social</title><g id="Слой_2" data-name="Слой 2"><g id="Социальные_сети" data-name="Социальные сети"><path id="Twitter_Logo" data-name="Twitter Logo" class="cls-1" d="M12.73,1.23a5.14,5.14,0,0,1-1.5.41A2.6,2.6,0,0,0,12.38.19a5.14,5.14,0,0,1-1.66.63A2.61,2.61,0,0,0,6.21,2.61a2.91,2.91,0,0,0,.06.6A7.41,7.41,0,0,1,.89.48,2.65,2.65,0,0,0,.54,1.8,2.61,2.61,0,0,0,1.7,4,2.58,2.58,0,0,1,.52,3.64a0,0,0,0,0,0,0,2.62,2.62,0,0,0,2.1,2.56,2.62,2.62,0,0,1-1.18,0A2.61,2.61,0,0,0,3.87,8.1,5.23,5.23,0,0,1,.63,9.22a5.43,5.43,0,0,1-.63,0A7.43,7.43,0,0,0,11.44,2.92c0-.11,0-.23,0-.34A5.29,5.29,0,0,0,12.73,1.23Z"/></g></g></svg>